<mxfile host="app.diagrams.net" modified="2024-03-30T14:53:59.337Z" agent="Mozilla/5.0 (Windows NT 10.0; Win64; x64) AppleWebKit/537.36 (KHTML, like Gecko) Chrome/122.0.0.0 Safari/537.36 Edg/122.0.0.0" version="24.2.1" etag="XMTDUaS8xp2iZabrE_NZ" type="github">
  <diagram name="第 1 页" id="ervjNfl2ORbbpsX9Q-sZ">
    <mxGraphModel>
      <root>
        <mxCell id="0" />
        <mxCell id="1" parent="0" />
      </root>
    </mxGraphModel>
  </diagram>
</mxfile>
